<mxfile host="app.diagrams.net" agent="Mozilla/5.0 (Windows NT 10.0; Win64; x64) AppleWebKit/537.36 (KHTML, like Gecko) Chrome/132.0.0.0 Safari/537.36 OPR/117.0.0.0" modified="2025-03-27T23:05:15.427Z" version="24.3.1" etag="LoksJTCwxune2XoSV165" type="github">
  <diagram id="yPxyJZ8AM_hMuL3Unpa9" name="simple gitflow">
    <mxGraphModel dx="2778" dy="944" grid="1" gridSize="10" guides="1" tooltips="1" connect="1" arrows="1" fold="1" page="1" pageScale="1" pageWidth="1100" pageHeight="850" math="0" shadow="0">
      <root>
        <mxCell id="0" />
        <mxCell id="1" parent="0" />
        <mxCell id="9hBKPDzoitwpIBdzFDQ7-25" value="" style="verticalLabelPosition=bottom;verticalAlign=top;html=1;strokeWidth=4;shape=mxgraph.flowchart.on-page_reference;plain-blue;gradientColor=none;fillColor=#B5E3Fe;strokeColor=#000000;" parent="1" vertex="1">
          <mxGeometry x="274.5" y="165" width="30" height="30" as="geometry" />
        </mxCell>
        <mxCell id="9hBKPDzoitwpIBdzFDQ7-26" value="" style="verticalLabelPosition=bottom;verticalAlign=top;html=1;strokeWidth=4;shape=mxgraph.flowchart.on-page_reference;plain-blue;gradientColor=none;strokeColor=#000000;" parent="1" vertex="1">
          <mxGeometry x="420" y="165" width="30" height="30" as="geometry" />
        </mxCell>
        <mxCell id="9hBKPDzoitwpIBdzFDQ7-40" value="" style="verticalLabelPosition=bottom;verticalAlign=top;html=1;strokeWidth=4;shape=mxgraph.flowchart.on-page_reference;plain-blue;gradientColor=none;strokeColor=#000000;" parent="1" vertex="1">
          <mxGeometry x="570" y="165" width="30" height="30" as="geometry" />
        </mxCell>
        <mxCell id="9hBKPDzoitwpIBdzFDQ7-42" value="" style="verticalLabelPosition=bottom;verticalAlign=top;html=1;strokeWidth=4;shape=mxgraph.flowchart.on-page_reference;plain-blue;gradientColor=none;strokeColor=#000000;" parent="1" vertex="1">
          <mxGeometry x="730" y="165" width="30" height="30" as="geometry" />
        </mxCell>
        <mxCell id="9hBKPDzoitwpIBdzFDQ7-55" value="" style="verticalLabelPosition=bottom;verticalAlign=top;html=1;strokeWidth=4;shape=mxgraph.flowchart.on-page_reference;plain-blue;gradientColor=none;strokeColor=#000000;" parent="1" vertex="1">
          <mxGeometry x="890" y="165" width="30" height="30" as="geometry" />
        </mxCell>
        <mxCell id="9hBKPDzoitwpIBdzFDQ7-27" value="(0,1,...,8,9)" style="edgeStyle=orthogonalEdgeStyle;rounded=0;html=1;jettySize=auto;orthogonalLoop=1;strokeWidth=4;endArrow=classic;endFill=1;labelPosition=center;verticalLabelPosition=top;align=center;verticalAlign=bottom;" parent="1" target="9hBKPDzoitwpIBdzFDQ7-25" edge="1">
          <mxGeometry x="204.5" y="180" as="geometry">
            <mxPoint x="160" y="180" as="sourcePoint" />
          </mxGeometry>
        </mxCell>
        <mxCell id="QYz8Vl0O1Jo9Q_EbWl7z-4" value="(0,1,...,8,9)" style="edgeStyle=orthogonalEdgeStyle;rounded=0;html=1;jettySize=auto;orthogonalLoop=1;strokeWidth=4;endArrow=classic;endFill=1;labelPosition=center;verticalLabelPosition=top;align=center;verticalAlign=bottom;" edge="1" parent="1">
          <mxGeometry x="204.5" y="180" as="geometry">
            <mxPoint x="305" y="179.29" as="sourcePoint" />
            <mxPoint x="420" y="179.29" as="targetPoint" />
          </mxGeometry>
        </mxCell>
        <mxCell id="QYz8Vl0O1Jo9Q_EbWl7z-5" value="(0,1,...,8,9)" style="edgeStyle=orthogonalEdgeStyle;rounded=0;html=1;jettySize=auto;orthogonalLoop=1;strokeWidth=4;endArrow=classic;endFill=1;labelPosition=center;verticalLabelPosition=top;align=center;verticalAlign=bottom;" edge="1" parent="1">
          <mxGeometry x="204.5" y="180" as="geometry">
            <mxPoint x="450" y="180" as="sourcePoint" />
            <mxPoint x="565" y="180" as="targetPoint" />
          </mxGeometry>
        </mxCell>
        <mxCell id="QYz8Vl0O1Jo9Q_EbWl7z-6" value="(0,1,...,8,9)" style="edgeStyle=orthogonalEdgeStyle;rounded=0;html=1;jettySize=auto;orthogonalLoop=1;strokeWidth=4;endArrow=classic;endFill=1;labelPosition=center;verticalLabelPosition=top;align=center;verticalAlign=bottom;" edge="1" parent="1">
          <mxGeometry x="204.5" y="180" as="geometry">
            <mxPoint x="610" y="179.29" as="sourcePoint" />
            <mxPoint x="725" y="179.29" as="targetPoint" />
          </mxGeometry>
        </mxCell>
        <mxCell id="QYz8Vl0O1Jo9Q_EbWl7z-10" value="(0,1,...,8,9)" style="edgeStyle=orthogonalEdgeStyle;rounded=0;html=1;jettySize=auto;orthogonalLoop=1;strokeWidth=4;endArrow=classic;endFill=1;labelPosition=center;verticalLabelPosition=top;align=center;verticalAlign=bottom;" edge="1" parent="1">
          <mxGeometry x="204.5" y="180" as="geometry">
            <mxPoint x="770" y="179.29" as="sourcePoint" />
            <mxPoint x="885" y="179.29" as="targetPoint" />
          </mxGeometry>
        </mxCell>
        <mxCell id="QYz8Vl0O1Jo9Q_EbWl7z-11" value="(.)" style="edgeStyle=entityRelationEdgeStyle;rounded=0;html=1;jettySize=auto;orthogonalLoop=1;strokeWidth=4;endArrow=classic;endFill=1;labelPosition=center;verticalLabelPosition=top;align=center;verticalAlign=bottom;" edge="1" parent="1">
          <mxGeometry x="204.5" y="180" as="geometry">
            <mxPoint x="930" y="179.29" as="sourcePoint" />
            <mxPoint x="130" y="300" as="targetPoint" />
          </mxGeometry>
        </mxCell>
        <mxCell id="QYz8Vl0O1Jo9Q_EbWl7z-12" value="" style="verticalLabelPosition=bottom;verticalAlign=top;html=1;strokeWidth=4;shape=mxgraph.flowchart.on-page_reference;plain-blue;gradientColor=none;fillColor=#B5E3Fe;strokeColor=#000000;" vertex="1" parent="1">
          <mxGeometry x="274.5" y="280" width="30" height="30" as="geometry" />
        </mxCell>
        <mxCell id="QYz8Vl0O1Jo9Q_EbWl7z-13" value="" style="verticalLabelPosition=bottom;verticalAlign=top;html=1;strokeWidth=4;shape=mxgraph.flowchart.on-page_reference;plain-blue;gradientColor=none;strokeColor=#000000;" vertex="1" parent="1">
          <mxGeometry x="420" y="280" width="30" height="30" as="geometry" />
        </mxCell>
        <mxCell id="QYz8Vl0O1Jo9Q_EbWl7z-14" value="" style="verticalLabelPosition=bottom;verticalAlign=top;html=1;strokeWidth=4;shape=mxgraph.flowchart.on-page_reference;plain-blue;gradientColor=none;strokeColor=#000000;" vertex="1" parent="1">
          <mxGeometry x="570" y="280" width="30" height="30" as="geometry" />
        </mxCell>
        <mxCell id="QYz8Vl0O1Jo9Q_EbWl7z-15" value="" style="verticalLabelPosition=bottom;verticalAlign=top;html=1;strokeWidth=4;shape=mxgraph.flowchart.on-page_reference;plain-blue;gradientColor=none;strokeColor=#000000;" vertex="1" parent="1">
          <mxGeometry x="730" y="280" width="30" height="30" as="geometry" />
        </mxCell>
        <mxCell id="QYz8Vl0O1Jo9Q_EbWl7z-16" value="" style="verticalLabelPosition=bottom;verticalAlign=top;html=1;strokeWidth=4;shape=mxgraph.flowchart.on-page_reference;plain-blue;gradientColor=none;strokeColor=#000000;" vertex="1" parent="1">
          <mxGeometry x="890" y="280" width="30" height="30" as="geometry" />
        </mxCell>
        <mxCell id="QYz8Vl0O1Jo9Q_EbWl7z-18" value="(0,1,...,8,9)" style="edgeStyle=orthogonalEdgeStyle;rounded=0;html=1;jettySize=auto;orthogonalLoop=1;strokeWidth=4;endArrow=classic;endFill=1;labelPosition=center;verticalLabelPosition=top;align=center;verticalAlign=bottom;" edge="1" parent="1">
          <mxGeometry x="204.5" y="180" as="geometry">
            <mxPoint x="305" y="294.28999999999996" as="sourcePoint" />
            <mxPoint x="420" y="294.28999999999996" as="targetPoint" />
          </mxGeometry>
        </mxCell>
        <mxCell id="QYz8Vl0O1Jo9Q_EbWl7z-19" value="(0,1,...,8,9)" style="edgeStyle=orthogonalEdgeStyle;rounded=0;html=1;jettySize=auto;orthogonalLoop=1;strokeWidth=4;endArrow=classic;endFill=1;labelPosition=center;verticalLabelPosition=top;align=center;verticalAlign=bottom;" edge="1" parent="1">
          <mxGeometry x="204.5" y="180" as="geometry">
            <mxPoint x="450" y="295" as="sourcePoint" />
            <mxPoint x="565" y="295" as="targetPoint" />
          </mxGeometry>
        </mxCell>
        <mxCell id="QYz8Vl0O1Jo9Q_EbWl7z-20" value="(0,1,...,8,9)" style="edgeStyle=orthogonalEdgeStyle;rounded=0;html=1;jettySize=auto;orthogonalLoop=1;strokeWidth=4;endArrow=classic;endFill=1;labelPosition=center;verticalLabelPosition=top;align=center;verticalAlign=bottom;" edge="1" parent="1">
          <mxGeometry x="204.5" y="180" as="geometry">
            <mxPoint x="610" y="294.28999999999996" as="sourcePoint" />
            <mxPoint x="725" y="294.28999999999996" as="targetPoint" />
          </mxGeometry>
        </mxCell>
        <mxCell id="QYz8Vl0O1Jo9Q_EbWl7z-21" value="(0,1,...,8,9)" style="edgeStyle=orthogonalEdgeStyle;rounded=0;html=1;jettySize=auto;orthogonalLoop=1;strokeWidth=4;endArrow=classic;endFill=1;labelPosition=center;verticalLabelPosition=top;align=center;verticalAlign=bottom;" edge="1" parent="1">
          <mxGeometry x="204.5" y="180" as="geometry">
            <mxPoint x="770" y="294.28999999999996" as="sourcePoint" />
            <mxPoint x="885" y="294.28999999999996" as="targetPoint" />
          </mxGeometry>
        </mxCell>
        <mxCell id="QYz8Vl0O1Jo9Q_EbWl7z-23" value="" style="verticalLabelPosition=bottom;verticalAlign=top;html=1;strokeWidth=4;shape=mxgraph.flowchart.on-page_reference;plain-blue;gradientColor=none;fillColor=#B5E3Fe;strokeColor=#000000;" vertex="1" parent="1">
          <mxGeometry x="130" y="280" width="30" height="30" as="geometry" />
        </mxCell>
        <mxCell id="QYz8Vl0O1Jo9Q_EbWl7z-24" value="(0,1,...,8,9)" style="edgeStyle=orthogonalEdgeStyle;rounded=0;html=1;jettySize=auto;orthogonalLoop=1;strokeWidth=4;endArrow=classic;endFill=1;labelPosition=center;verticalLabelPosition=top;align=center;verticalAlign=bottom;" edge="1" parent="1">
          <mxGeometry x="204.5" y="180" as="geometry">
            <mxPoint x="160" y="294.29" as="sourcePoint" />
            <mxPoint x="275" y="294.58" as="targetPoint" />
          </mxGeometry>
        </mxCell>
        <mxCell id="QYz8Vl0O1Jo9Q_EbWl7z-25" value="" style="verticalLabelPosition=bottom;verticalAlign=top;html=1;strokeWidth=4;shape=mxgraph.flowchart.on-page_reference;plain-blue;gradientColor=none;fillColor=#B5E3Fe;strokeColor=#000000;" vertex="1" parent="1">
          <mxGeometry x="284.5" y="400" width="30" height="30" as="geometry" />
        </mxCell>
        <mxCell id="QYz8Vl0O1Jo9Q_EbWl7z-26" value="" style="verticalLabelPosition=bottom;verticalAlign=top;html=1;strokeWidth=4;shape=mxgraph.flowchart.on-page_reference;plain-blue;gradientColor=none;strokeColor=#000000;" vertex="1" parent="1">
          <mxGeometry x="430" y="400" width="30" height="30" as="geometry" />
        </mxCell>
        <mxCell id="QYz8Vl0O1Jo9Q_EbWl7z-27" value="" style="verticalLabelPosition=bottom;verticalAlign=top;html=1;strokeWidth=4;shape=mxgraph.flowchart.on-page_reference;plain-blue;gradientColor=none;strokeColor=#000000;" vertex="1" parent="1">
          <mxGeometry x="580" y="400" width="30" height="30" as="geometry" />
        </mxCell>
        <mxCell id="QYz8Vl0O1Jo9Q_EbWl7z-28" value="" style="verticalLabelPosition=bottom;verticalAlign=top;html=1;strokeWidth=4;shape=mxgraph.flowchart.on-page_reference;plain-blue;gradientColor=none;strokeColor=#000000;" vertex="1" parent="1">
          <mxGeometry x="740" y="400" width="30" height="30" as="geometry" />
        </mxCell>
        <mxCell id="QYz8Vl0O1Jo9Q_EbWl7z-29" value="" style="verticalLabelPosition=bottom;verticalAlign=top;html=1;strokeWidth=4;shape=mxgraph.flowchart.on-page_reference;plain-blue;gradientColor=none;strokeColor=#000000;" vertex="1" parent="1">
          <mxGeometry x="900" y="400" width="30" height="30" as="geometry" />
        </mxCell>
        <mxCell id="QYz8Vl0O1Jo9Q_EbWl7z-30" value="(0,1,...,8,9)" style="edgeStyle=orthogonalEdgeStyle;rounded=0;html=1;jettySize=auto;orthogonalLoop=1;strokeWidth=4;endArrow=classic;endFill=1;labelPosition=center;verticalLabelPosition=top;align=center;verticalAlign=bottom;" edge="1" parent="1" target="QYz8Vl0O1Jo9Q_EbWl7z-25">
          <mxGeometry x="204.5" y="180" as="geometry">
            <mxPoint x="170" y="415" as="sourcePoint" />
          </mxGeometry>
        </mxCell>
        <mxCell id="QYz8Vl0O1Jo9Q_EbWl7z-31" value="(0,1,...,8,9)" style="edgeStyle=orthogonalEdgeStyle;rounded=0;html=1;jettySize=auto;orthogonalLoop=1;strokeWidth=4;endArrow=classic;endFill=1;labelPosition=center;verticalLabelPosition=top;align=center;verticalAlign=bottom;" edge="1" parent="1">
          <mxGeometry x="204.5" y="180" as="geometry">
            <mxPoint x="315" y="414.28999999999996" as="sourcePoint" />
            <mxPoint x="430" y="414.28999999999996" as="targetPoint" />
          </mxGeometry>
        </mxCell>
        <mxCell id="QYz8Vl0O1Jo9Q_EbWl7z-32" value="(0,1,...,8,9)" style="edgeStyle=orthogonalEdgeStyle;rounded=0;html=1;jettySize=auto;orthogonalLoop=1;strokeWidth=4;endArrow=classic;endFill=1;labelPosition=center;verticalLabelPosition=top;align=center;verticalAlign=bottom;" edge="1" parent="1">
          <mxGeometry x="204.5" y="180" as="geometry">
            <mxPoint x="460" y="415" as="sourcePoint" />
            <mxPoint x="575" y="415" as="targetPoint" />
          </mxGeometry>
        </mxCell>
        <mxCell id="QYz8Vl0O1Jo9Q_EbWl7z-33" value="(0,1,...,8,9)" style="edgeStyle=orthogonalEdgeStyle;rounded=0;html=1;jettySize=auto;orthogonalLoop=1;strokeWidth=4;endArrow=classic;endFill=1;labelPosition=center;verticalLabelPosition=top;align=center;verticalAlign=bottom;" edge="1" parent="1">
          <mxGeometry x="204.5" y="180" as="geometry">
            <mxPoint x="620" y="414.28999999999996" as="sourcePoint" />
            <mxPoint x="735" y="414.28999999999996" as="targetPoint" />
          </mxGeometry>
        </mxCell>
        <mxCell id="QYz8Vl0O1Jo9Q_EbWl7z-34" value="(0,1,...,8,9)" style="edgeStyle=orthogonalEdgeStyle;rounded=0;html=1;jettySize=auto;orthogonalLoop=1;strokeWidth=4;endArrow=classic;endFill=1;labelPosition=center;verticalLabelPosition=top;align=center;verticalAlign=bottom;" edge="1" parent="1">
          <mxGeometry x="204.5" y="180" as="geometry">
            <mxPoint x="780" y="414.28999999999996" as="sourcePoint" />
            <mxPoint x="895" y="414.28999999999996" as="targetPoint" />
          </mxGeometry>
        </mxCell>
        <mxCell id="QYz8Vl0O1Jo9Q_EbWl7z-35" value="(.)" style="edgeStyle=entityRelationEdgeStyle;rounded=0;html=1;jettySize=auto;orthogonalLoop=1;strokeWidth=4;endArrow=classic;endFill=1;labelPosition=center;verticalLabelPosition=top;align=center;verticalAlign=bottom;" edge="1" parent="1">
          <mxGeometry x="204.5" y="180" as="geometry">
            <mxPoint x="940" y="414.28999999999996" as="sourcePoint" />
            <mxPoint y="530" as="targetPoint" />
            <Array as="points">
              <mxPoint x="40" y="470" />
            </Array>
          </mxGeometry>
        </mxCell>
        <mxCell id="QYz8Vl0O1Jo9Q_EbWl7z-36" value="" style="verticalLabelPosition=bottom;verticalAlign=top;html=1;strokeWidth=4;shape=mxgraph.flowchart.on-page_reference;plain-blue;gradientColor=none;fillColor=#B5E3Fe;strokeColor=#000000;" vertex="1" parent="1">
          <mxGeometry x="284.5" y="515" width="30" height="30" as="geometry" />
        </mxCell>
        <mxCell id="QYz8Vl0O1Jo9Q_EbWl7z-37" value="" style="verticalLabelPosition=bottom;verticalAlign=top;html=1;strokeWidth=4;shape=mxgraph.flowchart.on-page_reference;plain-blue;gradientColor=none;strokeColor=#000000;" vertex="1" parent="1">
          <mxGeometry x="430" y="515" width="30" height="30" as="geometry" />
        </mxCell>
        <mxCell id="QYz8Vl0O1Jo9Q_EbWl7z-38" value="" style="verticalLabelPosition=bottom;verticalAlign=top;html=1;strokeWidth=4;shape=mxgraph.flowchart.on-page_reference;plain-blue;gradientColor=none;strokeColor=#000000;" vertex="1" parent="1">
          <mxGeometry x="580" y="515" width="30" height="30" as="geometry" />
        </mxCell>
        <mxCell id="QYz8Vl0O1Jo9Q_EbWl7z-39" value="" style="verticalLabelPosition=bottom;verticalAlign=top;html=1;strokeWidth=4;shape=mxgraph.flowchart.on-page_reference;plain-blue;gradientColor=none;strokeColor=#000000;" vertex="1" parent="1">
          <mxGeometry x="740" y="515" width="30" height="30" as="geometry" />
        </mxCell>
        <mxCell id="QYz8Vl0O1Jo9Q_EbWl7z-40" value="" style="verticalLabelPosition=bottom;verticalAlign=top;html=1;strokeWidth=4;shape=mxgraph.flowchart.on-page_reference;plain-blue;gradientColor=none;strokeColor=#000000;" vertex="1" parent="1">
          <mxGeometry x="900" y="515" width="30" height="30" as="geometry" />
        </mxCell>
        <mxCell id="QYz8Vl0O1Jo9Q_EbWl7z-41" value="(0,1,...,8,9)" style="edgeStyle=orthogonalEdgeStyle;rounded=0;html=1;jettySize=auto;orthogonalLoop=1;strokeWidth=4;endArrow=classic;endFill=1;labelPosition=center;verticalLabelPosition=top;align=center;verticalAlign=bottom;" edge="1" parent="1">
          <mxGeometry x="204.5" y="180" as="geometry">
            <mxPoint x="315" y="529.29" as="sourcePoint" />
            <mxPoint x="430" y="529.29" as="targetPoint" />
          </mxGeometry>
        </mxCell>
        <mxCell id="QYz8Vl0O1Jo9Q_EbWl7z-42" value="(0,1,...,8,9)" style="edgeStyle=orthogonalEdgeStyle;rounded=0;html=1;jettySize=auto;orthogonalLoop=1;strokeWidth=4;endArrow=classic;endFill=1;labelPosition=center;verticalLabelPosition=top;align=center;verticalAlign=bottom;" edge="1" parent="1">
          <mxGeometry x="204.5" y="180" as="geometry">
            <mxPoint x="460" y="530" as="sourcePoint" />
            <mxPoint x="575" y="530" as="targetPoint" />
          </mxGeometry>
        </mxCell>
        <mxCell id="QYz8Vl0O1Jo9Q_EbWl7z-43" value="(0,1,...,8,9)" style="edgeStyle=orthogonalEdgeStyle;rounded=0;html=1;jettySize=auto;orthogonalLoop=1;strokeWidth=4;endArrow=classic;endFill=1;labelPosition=center;verticalLabelPosition=top;align=center;verticalAlign=bottom;" edge="1" parent="1">
          <mxGeometry x="204.5" y="180" as="geometry">
            <mxPoint x="620" y="529.29" as="sourcePoint" />
            <mxPoint x="735" y="529.29" as="targetPoint" />
          </mxGeometry>
        </mxCell>
        <mxCell id="QYz8Vl0O1Jo9Q_EbWl7z-44" value="(0,1,...,8,9)" style="edgeStyle=orthogonalEdgeStyle;rounded=0;html=1;jettySize=auto;orthogonalLoop=1;strokeWidth=4;endArrow=classic;endFill=1;labelPosition=center;verticalLabelPosition=top;align=center;verticalAlign=bottom;" edge="1" parent="1">
          <mxGeometry x="204.5" y="180" as="geometry">
            <mxPoint x="780" y="529.29" as="sourcePoint" />
            <mxPoint x="895" y="529.29" as="targetPoint" />
          </mxGeometry>
        </mxCell>
        <mxCell id="QYz8Vl0O1Jo9Q_EbWl7z-45" value="" style="verticalLabelPosition=bottom;verticalAlign=top;html=1;strokeWidth=4;shape=mxgraph.flowchart.on-page_reference;plain-blue;gradientColor=none;fillColor=#B5E3Fe;strokeColor=#000000;" vertex="1" parent="1">
          <mxGeometry x="140" y="515" width="30" height="30" as="geometry" />
        </mxCell>
        <mxCell id="QYz8Vl0O1Jo9Q_EbWl7z-46" value="(0,1,...,8,9)" style="edgeStyle=orthogonalEdgeStyle;rounded=0;html=1;jettySize=auto;orthogonalLoop=1;strokeWidth=4;endArrow=classic;endFill=1;labelPosition=center;verticalLabelPosition=top;align=center;verticalAlign=bottom;" edge="1" parent="1">
          <mxGeometry x="204.5" y="180" as="geometry">
            <mxPoint x="170" y="529.29" as="sourcePoint" />
            <mxPoint x="285" y="529.5799999999999" as="targetPoint" />
          </mxGeometry>
        </mxCell>
        <mxCell id="QYz8Vl0O1Jo9Q_EbWl7z-47" value="( )" style="edgeStyle=entityRelationEdgeStyle;rounded=0;html=1;jettySize=auto;orthogonalLoop=1;strokeWidth=4;endArrow=classic;endFill=1;labelPosition=center;verticalLabelPosition=top;align=center;verticalAlign=bottom;" edge="1" parent="1">
          <mxGeometry x="204.5" y="180" as="geometry">
            <mxPoint x="920" y="290" as="sourcePoint" />
            <mxPoint x="120" y="410.71" as="targetPoint" />
          </mxGeometry>
        </mxCell>
        <mxCell id="QYz8Vl0O1Jo9Q_EbWl7z-48" value="" style="verticalLabelPosition=bottom;verticalAlign=top;html=1;strokeWidth=4;shape=mxgraph.flowchart.on-page_reference;plain-blue;gradientColor=none;fillColor=#B5E3Fe;strokeColor=#000000;" vertex="1" parent="1">
          <mxGeometry x="130" y="395" width="30" height="30" as="geometry" />
        </mxCell>
        <mxCell id="QYz8Vl0O1Jo9Q_EbWl7z-49" value="( )" style="edgeStyle=entityRelationEdgeStyle;rounded=0;html=1;jettySize=auto;orthogonalLoop=1;strokeWidth=4;endArrow=classic;endFill=1;labelPosition=center;verticalLabelPosition=top;align=center;verticalAlign=bottom;" edge="1" parent="1">
          <mxGeometry x="204.5" y="180" as="geometry">
            <mxPoint x="930" y="530" as="sourcePoint" />
            <mxPoint x="130" y="650.71" as="targetPoint" />
          </mxGeometry>
        </mxCell>
        <mxCell id="QYz8Vl0O1Jo9Q_EbWl7z-50" value="" style="verticalLabelPosition=bottom;verticalAlign=top;html=1;strokeWidth=4;shape=mxgraph.flowchart.on-page_reference;plain-blue;gradientColor=none;fillColor=#B5E3Fe;strokeColor=#000000;" vertex="1" parent="1">
          <mxGeometry x="274.5" y="630.71" width="30" height="30" as="geometry" />
        </mxCell>
        <mxCell id="QYz8Vl0O1Jo9Q_EbWl7z-51" value="" style="verticalLabelPosition=bottom;verticalAlign=top;html=1;strokeWidth=4;shape=mxgraph.flowchart.on-page_reference;plain-blue;gradientColor=none;strokeColor=#000000;" vertex="1" parent="1">
          <mxGeometry x="420" y="630.71" width="30" height="30" as="geometry" />
        </mxCell>
        <mxCell id="QYz8Vl0O1Jo9Q_EbWl7z-52" value="" style="verticalLabelPosition=bottom;verticalAlign=top;html=1;strokeWidth=4;shape=mxgraph.flowchart.on-page_reference;plain-blue;gradientColor=none;strokeColor=#000000;" vertex="1" parent="1">
          <mxGeometry x="570" y="630.71" width="30" height="30" as="geometry" />
        </mxCell>
        <mxCell id="QYz8Vl0O1Jo9Q_EbWl7z-53" value="" style="verticalLabelPosition=bottom;verticalAlign=top;html=1;strokeWidth=4;shape=mxgraph.flowchart.on-page_reference;plain-blue;gradientColor=none;strokeColor=#000000;" vertex="1" parent="1">
          <mxGeometry x="730" y="630.71" width="30" height="30" as="geometry" />
        </mxCell>
        <mxCell id="QYz8Vl0O1Jo9Q_EbWl7z-54" value="" style="verticalLabelPosition=bottom;verticalAlign=top;html=1;strokeWidth=4;shape=mxgraph.flowchart.on-page_reference;plain-blue;gradientColor=none;strokeColor=#000000;" vertex="1" parent="1">
          <mxGeometry x="890" y="630.71" width="30" height="30" as="geometry" />
        </mxCell>
        <mxCell id="QYz8Vl0O1Jo9Q_EbWl7z-55" value="(0,1,...,8,9)" style="edgeStyle=orthogonalEdgeStyle;rounded=0;html=1;jettySize=auto;orthogonalLoop=1;strokeWidth=4;endArrow=classic;endFill=1;labelPosition=center;verticalLabelPosition=top;align=center;verticalAlign=bottom;" edge="1" parent="1">
          <mxGeometry x="204.5" y="180" as="geometry">
            <mxPoint x="305" y="645" as="sourcePoint" />
            <mxPoint x="420" y="645" as="targetPoint" />
          </mxGeometry>
        </mxCell>
        <mxCell id="QYz8Vl0O1Jo9Q_EbWl7z-56" value="(0,1,...,8,9)" style="edgeStyle=orthogonalEdgeStyle;rounded=0;html=1;jettySize=auto;orthogonalLoop=1;strokeWidth=4;endArrow=classic;endFill=1;labelPosition=center;verticalLabelPosition=top;align=center;verticalAlign=bottom;" edge="1" parent="1">
          <mxGeometry x="204.5" y="180" as="geometry">
            <mxPoint x="450" y="645.71" as="sourcePoint" />
            <mxPoint x="565" y="645.71" as="targetPoint" />
          </mxGeometry>
        </mxCell>
        <mxCell id="QYz8Vl0O1Jo9Q_EbWl7z-57" value="(0,1,...,8,9)" style="edgeStyle=orthogonalEdgeStyle;rounded=0;html=1;jettySize=auto;orthogonalLoop=1;strokeWidth=4;endArrow=classic;endFill=1;labelPosition=center;verticalLabelPosition=top;align=center;verticalAlign=bottom;" edge="1" parent="1">
          <mxGeometry x="204.5" y="180" as="geometry">
            <mxPoint x="610" y="645" as="sourcePoint" />
            <mxPoint x="725" y="645" as="targetPoint" />
          </mxGeometry>
        </mxCell>
        <mxCell id="QYz8Vl0O1Jo9Q_EbWl7z-58" value="(0,1,...,8,9)" style="edgeStyle=orthogonalEdgeStyle;rounded=0;html=1;jettySize=auto;orthogonalLoop=1;strokeWidth=4;endArrow=classic;endFill=1;labelPosition=center;verticalLabelPosition=top;align=center;verticalAlign=bottom;" edge="1" parent="1">
          <mxGeometry x="204.5" y="180" as="geometry">
            <mxPoint x="770" y="645" as="sourcePoint" />
            <mxPoint x="885" y="645" as="targetPoint" />
          </mxGeometry>
        </mxCell>
        <mxCell id="QYz8Vl0O1Jo9Q_EbWl7z-59" value="" style="verticalLabelPosition=bottom;verticalAlign=top;html=1;strokeWidth=4;shape=mxgraph.flowchart.on-page_reference;plain-blue;gradientColor=none;fillColor=#B5E3Fe;strokeColor=#000000;" vertex="1" parent="1">
          <mxGeometry x="130" y="630.71" width="30" height="30" as="geometry" />
        </mxCell>
        <mxCell id="QYz8Vl0O1Jo9Q_EbWl7z-60" value="(0,1,...,8,9)" style="edgeStyle=orthogonalEdgeStyle;rounded=0;html=1;jettySize=auto;orthogonalLoop=1;strokeWidth=4;endArrow=classic;endFill=1;labelPosition=center;verticalLabelPosition=top;align=center;verticalAlign=bottom;" edge="1" parent="1">
          <mxGeometry x="204.5" y="180" as="geometry">
            <mxPoint x="160" y="645" as="sourcePoint" />
            <mxPoint x="275" y="645.29" as="targetPoint" />
          </mxGeometry>
        </mxCell>
        <mxCell id="QYz8Vl0O1Jo9Q_EbWl7z-61" value="" style="verticalLabelPosition=bottom;verticalAlign=top;html=1;strokeWidth=4;shape=mxgraph.flowchart.on-page_reference;plain-blue;gradientColor=none;fillColor=#B5E3Fe;strokeColor=#000000;" vertex="1" parent="1">
          <mxGeometry x="284.5" y="750.71" width="30" height="30" as="geometry" />
        </mxCell>
        <mxCell id="QYz8Vl0O1Jo9Q_EbWl7z-62" value="" style="verticalLabelPosition=bottom;verticalAlign=top;html=1;strokeWidth=4;shape=mxgraph.flowchart.on-page_reference;plain-blue;gradientColor=none;strokeColor=#000000;" vertex="1" parent="1">
          <mxGeometry x="430" y="750.71" width="30" height="30" as="geometry" />
        </mxCell>
        <mxCell id="QYz8Vl0O1Jo9Q_EbWl7z-63" value="" style="verticalLabelPosition=bottom;verticalAlign=top;html=1;strokeWidth=4;shape=mxgraph.flowchart.on-page_reference;plain-blue;gradientColor=none;strokeColor=#000000;" vertex="1" parent="1">
          <mxGeometry x="580" y="750.71" width="30" height="30" as="geometry" />
        </mxCell>
        <mxCell id="QYz8Vl0O1Jo9Q_EbWl7z-64" value="" style="verticalLabelPosition=bottom;verticalAlign=top;html=1;strokeWidth=4;shape=mxgraph.flowchart.on-page_reference;plain-blue;gradientColor=none;strokeColor=#000000;" vertex="1" parent="1">
          <mxGeometry x="740" y="750.71" width="30" height="30" as="geometry" />
        </mxCell>
        <mxCell id="QYz8Vl0O1Jo9Q_EbWl7z-65" value="" style="verticalLabelPosition=bottom;verticalAlign=top;html=1;strokeWidth=4;shape=mxgraph.flowchart.on-page_reference;plain-blue;gradientColor=none;strokeColor=#000000;" vertex="1" parent="1">
          <mxGeometry x="900" y="750.71" width="30" height="30" as="geometry" />
        </mxCell>
        <mxCell id="QYz8Vl0O1Jo9Q_EbWl7z-66" value="(0,1,...,8,9)" style="edgeStyle=orthogonalEdgeStyle;rounded=0;html=1;jettySize=auto;orthogonalLoop=1;strokeWidth=4;endArrow=classic;endFill=1;labelPosition=center;verticalLabelPosition=top;align=center;verticalAlign=bottom;" edge="1" parent="1" target="QYz8Vl0O1Jo9Q_EbWl7z-61">
          <mxGeometry x="204.5" y="180" as="geometry">
            <mxPoint x="170" y="765.71" as="sourcePoint" />
          </mxGeometry>
        </mxCell>
        <mxCell id="QYz8Vl0O1Jo9Q_EbWl7z-67" value="(0,1,...,8,9)" style="edgeStyle=orthogonalEdgeStyle;rounded=0;html=1;jettySize=auto;orthogonalLoop=1;strokeWidth=4;endArrow=classic;endFill=1;labelPosition=center;verticalLabelPosition=top;align=center;verticalAlign=bottom;" edge="1" parent="1">
          <mxGeometry x="204.5" y="180" as="geometry">
            <mxPoint x="315" y="765" as="sourcePoint" />
            <mxPoint x="430" y="765" as="targetPoint" />
          </mxGeometry>
        </mxCell>
        <mxCell id="QYz8Vl0O1Jo9Q_EbWl7z-68" value="(0,1,...,8,9)" style="edgeStyle=orthogonalEdgeStyle;rounded=0;html=1;jettySize=auto;orthogonalLoop=1;strokeWidth=4;endArrow=classic;endFill=1;labelPosition=center;verticalLabelPosition=top;align=center;verticalAlign=bottom;" edge="1" parent="1">
          <mxGeometry x="204.5" y="180" as="geometry">
            <mxPoint x="460" y="765.71" as="sourcePoint" />
            <mxPoint x="575" y="765.71" as="targetPoint" />
          </mxGeometry>
        </mxCell>
        <mxCell id="QYz8Vl0O1Jo9Q_EbWl7z-69" value="(0,1,...,8,9)" style="edgeStyle=orthogonalEdgeStyle;rounded=0;html=1;jettySize=auto;orthogonalLoop=1;strokeWidth=4;endArrow=classic;endFill=1;labelPosition=center;verticalLabelPosition=top;align=center;verticalAlign=bottom;" edge="1" parent="1">
          <mxGeometry x="204.5" y="180" as="geometry">
            <mxPoint x="620" y="765" as="sourcePoint" />
            <mxPoint x="735" y="765" as="targetPoint" />
          </mxGeometry>
        </mxCell>
        <mxCell id="QYz8Vl0O1Jo9Q_EbWl7z-70" value="(0,1,...,8,9)" style="edgeStyle=orthogonalEdgeStyle;rounded=0;html=1;jettySize=auto;orthogonalLoop=1;strokeWidth=4;endArrow=classic;endFill=1;labelPosition=center;verticalLabelPosition=top;align=center;verticalAlign=bottom;" edge="1" parent="1">
          <mxGeometry x="204.5" y="180" as="geometry">
            <mxPoint x="780" y="765" as="sourcePoint" />
            <mxPoint x="895" y="765" as="targetPoint" />
          </mxGeometry>
        </mxCell>
        <mxCell id="QYz8Vl0O1Jo9Q_EbWl7z-71" value="( )" style="edgeStyle=entityRelationEdgeStyle;rounded=0;html=1;jettySize=auto;orthogonalLoop=1;strokeWidth=4;endArrow=classic;endFill=1;labelPosition=center;verticalLabelPosition=top;align=center;verticalAlign=bottom;" edge="1" parent="1">
          <mxGeometry x="204.5" y="180" as="geometry">
            <mxPoint x="940" y="765" as="sourcePoint" />
            <mxPoint x="140" y="885.71" as="targetPoint" />
          </mxGeometry>
        </mxCell>
        <mxCell id="QYz8Vl0O1Jo9Q_EbWl7z-72" value="" style="verticalLabelPosition=bottom;verticalAlign=top;html=1;strokeWidth=4;shape=mxgraph.flowchart.on-page_reference;plain-blue;gradientColor=none;fillColor=#B5E3Fe;strokeColor=#000000;" vertex="1" parent="1">
          <mxGeometry x="284.5" y="865.71" width="30" height="30" as="geometry" />
        </mxCell>
        <mxCell id="QYz8Vl0O1Jo9Q_EbWl7z-73" value="" style="verticalLabelPosition=bottom;verticalAlign=top;html=1;strokeWidth=4;shape=mxgraph.flowchart.on-page_reference;plain-blue;gradientColor=none;strokeColor=#000000;" vertex="1" parent="1">
          <mxGeometry x="430" y="865.71" width="30" height="30" as="geometry" />
        </mxCell>
        <mxCell id="QYz8Vl0O1Jo9Q_EbWl7z-74" value="" style="verticalLabelPosition=bottom;verticalAlign=top;html=1;strokeWidth=4;shape=mxgraph.flowchart.on-page_reference;plain-blue;gradientColor=none;strokeColor=#000000;" vertex="1" parent="1">
          <mxGeometry x="580" y="865.71" width="30" height="30" as="geometry" />
        </mxCell>
        <mxCell id="QYz8Vl0O1Jo9Q_EbWl7z-75" value="" style="verticalLabelPosition=bottom;verticalAlign=top;html=1;strokeWidth=4;shape=mxgraph.flowchart.on-page_reference;plain-blue;gradientColor=none;strokeColor=#000000;" vertex="1" parent="1">
          <mxGeometry x="740" y="865.71" width="30" height="30" as="geometry" />
        </mxCell>
        <mxCell id="QYz8Vl0O1Jo9Q_EbWl7z-76" value="" style="verticalLabelPosition=bottom;verticalAlign=top;html=1;strokeWidth=4;shape=mxgraph.flowchart.on-page_reference;plain-blue;gradientColor=none;strokeColor=#000000;" vertex="1" parent="1">
          <mxGeometry x="900" y="865.71" width="30" height="30" as="geometry" />
        </mxCell>
        <mxCell id="QYz8Vl0O1Jo9Q_EbWl7z-77" value="( )" style="edgeStyle=orthogonalEdgeStyle;rounded=0;html=1;jettySize=auto;orthogonalLoop=1;strokeWidth=4;endArrow=classic;endFill=1;labelPosition=center;verticalLabelPosition=top;align=center;verticalAlign=bottom;" edge="1" parent="1">
          <mxGeometry x="204.5" y="180" as="geometry">
            <mxPoint x="315" y="880" as="sourcePoint" />
            <mxPoint x="430" y="880" as="targetPoint" />
          </mxGeometry>
        </mxCell>
        <mxCell id="QYz8Vl0O1Jo9Q_EbWl7z-78" value="(0,1,...,8,9)" style="edgeStyle=orthogonalEdgeStyle;rounded=0;html=1;jettySize=auto;orthogonalLoop=1;strokeWidth=4;endArrow=classic;endFill=1;labelPosition=center;verticalLabelPosition=top;align=center;verticalAlign=bottom;" edge="1" parent="1">
          <mxGeometry x="204.5" y="180" as="geometry">
            <mxPoint x="460" y="880.71" as="sourcePoint" />
            <mxPoint x="575" y="880.71" as="targetPoint" />
          </mxGeometry>
        </mxCell>
        <mxCell id="QYz8Vl0O1Jo9Q_EbWl7z-79" value="(0,1,...,8,9)" style="edgeStyle=orthogonalEdgeStyle;rounded=0;html=1;jettySize=auto;orthogonalLoop=1;strokeWidth=4;endArrow=classic;endFill=1;labelPosition=center;verticalLabelPosition=top;align=center;verticalAlign=bottom;" edge="1" parent="1">
          <mxGeometry x="204.5" y="180" as="geometry">
            <mxPoint x="620" y="880" as="sourcePoint" />
            <mxPoint x="735" y="880" as="targetPoint" />
          </mxGeometry>
        </mxCell>
        <mxCell id="QYz8Vl0O1Jo9Q_EbWl7z-80" value="(0,1,...,8,9)" style="edgeStyle=orthogonalEdgeStyle;rounded=0;html=1;jettySize=auto;orthogonalLoop=1;strokeWidth=4;endArrow=classic;endFill=1;labelPosition=center;verticalLabelPosition=top;align=center;verticalAlign=bottom;" edge="1" parent="1">
          <mxGeometry x="204.5" y="180" as="geometry">
            <mxPoint x="780" y="880" as="sourcePoint" />
            <mxPoint x="895" y="880" as="targetPoint" />
          </mxGeometry>
        </mxCell>
        <mxCell id="QYz8Vl0O1Jo9Q_EbWl7z-81" value="" style="verticalLabelPosition=bottom;verticalAlign=top;html=1;strokeWidth=4;shape=mxgraph.flowchart.on-page_reference;plain-blue;gradientColor=none;fillColor=#B5E3Fe;strokeColor=#000000;" vertex="1" parent="1">
          <mxGeometry x="140" y="865.71" width="30" height="30" as="geometry" />
        </mxCell>
        <mxCell id="QYz8Vl0O1Jo9Q_EbWl7z-82" value="(0,1,...,8,9)" style="edgeStyle=orthogonalEdgeStyle;rounded=0;html=1;jettySize=auto;orthogonalLoop=1;strokeWidth=4;endArrow=classic;endFill=1;labelPosition=center;verticalLabelPosition=top;align=center;verticalAlign=bottom;" edge="1" parent="1">
          <mxGeometry x="204.5" y="180" as="geometry">
            <mxPoint x="170" y="880" as="sourcePoint" />
            <mxPoint x="285" y="880.29" as="targetPoint" />
          </mxGeometry>
        </mxCell>
        <mxCell id="QYz8Vl0O1Jo9Q_EbWl7z-83" value="(.)" style="edgeStyle=entityRelationEdgeStyle;rounded=0;html=1;jettySize=auto;orthogonalLoop=1;strokeWidth=4;endArrow=classic;endFill=1;labelPosition=center;verticalLabelPosition=top;align=center;verticalAlign=bottom;" edge="1" parent="1">
          <mxGeometry x="204.5" y="180" as="geometry">
            <mxPoint x="920" y="640.71" as="sourcePoint" />
            <mxPoint x="-10" y="760" as="targetPoint" />
          </mxGeometry>
        </mxCell>
        <mxCell id="QYz8Vl0O1Jo9Q_EbWl7z-84" value="" style="verticalLabelPosition=bottom;verticalAlign=top;html=1;strokeWidth=4;shape=mxgraph.flowchart.on-page_reference;plain-blue;gradientColor=none;fillColor=#B5E3Fe;strokeColor=#000000;" vertex="1" parent="1">
          <mxGeometry x="130" y="745.71" width="30" height="30" as="geometry" />
        </mxCell>
        <mxCell id="QYz8Vl0O1Jo9Q_EbWl7z-85" value="" style="verticalLabelPosition=bottom;verticalAlign=top;html=1;strokeWidth=4;shape=mxgraph.flowchart.on-page_reference;plain-blue;gradientColor=none;fillColor=#B5E3Fe;strokeColor=#000000;" vertex="1" parent="1">
          <mxGeometry x="10" y="515" width="30" height="30" as="geometry" />
        </mxCell>
        <mxCell id="QYz8Vl0O1Jo9Q_EbWl7z-86" value="(0,1,...,8,9)" style="edgeStyle=orthogonalEdgeStyle;rounded=0;html=1;jettySize=auto;orthogonalLoop=1;strokeWidth=4;endArrow=classic;endFill=1;labelPosition=center;verticalLabelPosition=top;align=center;verticalAlign=bottom;" edge="1" parent="1">
          <mxGeometry x="204.5" y="180" as="geometry">
            <mxPoint x="40" y="529.29" as="sourcePoint" />
            <mxPoint x="155" y="529.5799999999999" as="targetPoint" />
          </mxGeometry>
        </mxCell>
        <mxCell id="QYz8Vl0O1Jo9Q_EbWl7z-87" value="" style="verticalLabelPosition=bottom;verticalAlign=top;html=1;strokeWidth=4;shape=mxgraph.flowchart.on-page_reference;plain-blue;gradientColor=none;fillColor=#B5E3Fe;strokeColor=#000000;" vertex="1" parent="1">
          <mxGeometry x="-5" y="745.71" width="30" height="30" as="geometry" />
        </mxCell>
        <mxCell id="QYz8Vl0O1Jo9Q_EbWl7z-88" value="(0,1,...,8,9)" style="edgeStyle=orthogonalEdgeStyle;rounded=0;html=1;jettySize=auto;orthogonalLoop=1;strokeWidth=4;endArrow=classic;endFill=1;labelPosition=center;verticalLabelPosition=top;align=center;verticalAlign=bottom;" edge="1" parent="1">
          <mxGeometry x="204.5" y="180" as="geometry">
            <mxPoint x="25" y="760" as="sourcePoint" />
            <mxPoint x="140" y="760.29" as="targetPoint" />
          </mxGeometry>
        </mxCell>
        <mxCell id="QYz8Vl0O1Jo9Q_EbWl7z-90" value="" style="verticalLabelPosition=bottom;verticalAlign=top;html=1;strokeWidth=4;shape=mxgraph.flowchart.on-page_reference;plain-blue;gradientColor=none;fillColor=#B5E3Fe;strokeColor=#000000;" vertex="1" parent="1">
          <mxGeometry x="309.5" y="985" width="30" height="30" as="geometry" />
        </mxCell>
        <mxCell id="QYz8Vl0O1Jo9Q_EbWl7z-91" value="" style="verticalLabelPosition=bottom;verticalAlign=top;html=1;strokeWidth=4;shape=mxgraph.flowchart.on-page_reference;plain-blue;gradientColor=none;strokeColor=#000000;" vertex="1" parent="1">
          <mxGeometry x="455" y="985" width="30" height="30" as="geometry" />
        </mxCell>
        <mxCell id="QYz8Vl0O1Jo9Q_EbWl7z-92" value="" style="verticalLabelPosition=bottom;verticalAlign=top;html=1;strokeWidth=4;shape=mxgraph.flowchart.on-page_reference;plain-blue;gradientColor=none;strokeColor=#000000;" vertex="1" parent="1">
          <mxGeometry x="605" y="985" width="30" height="30" as="geometry" />
        </mxCell>
        <mxCell id="QYz8Vl0O1Jo9Q_EbWl7z-93" value="" style="verticalLabelPosition=bottom;verticalAlign=top;html=1;strokeWidth=4;shape=mxgraph.flowchart.on-page_reference;plain-blue;gradientColor=none;strokeColor=#000000;" vertex="1" parent="1">
          <mxGeometry x="765" y="985" width="30" height="30" as="geometry" />
        </mxCell>
        <mxCell id="QYz8Vl0O1Jo9Q_EbWl7z-94" value="" style="verticalLabelPosition=bottom;verticalAlign=top;html=1;strokeWidth=4;shape=mxgraph.flowchart.on-page_reference;plain-blue;gradientColor=none;strokeColor=#000000;" vertex="1" parent="1">
          <mxGeometry x="925" y="985" width="30" height="30" as="geometry" />
        </mxCell>
        <mxCell id="QYz8Vl0O1Jo9Q_EbWl7z-95" value="(0,1,...,8,9)" style="edgeStyle=orthogonalEdgeStyle;rounded=0;html=1;jettySize=auto;orthogonalLoop=1;strokeWidth=4;endArrow=classic;endFill=1;labelPosition=center;verticalLabelPosition=top;align=center;verticalAlign=bottom;" edge="1" parent="1" target="QYz8Vl0O1Jo9Q_EbWl7z-90">
          <mxGeometry x="204.5" y="180" as="geometry">
            <mxPoint x="195" y="1000" as="sourcePoint" />
          </mxGeometry>
        </mxCell>
        <mxCell id="QYz8Vl0O1Jo9Q_EbWl7z-96" value="(0,1,...,8,9)" style="edgeStyle=orthogonalEdgeStyle;rounded=0;html=1;jettySize=auto;orthogonalLoop=1;strokeWidth=4;endArrow=classic;endFill=1;labelPosition=center;verticalLabelPosition=top;align=center;verticalAlign=bottom;" edge="1" parent="1">
          <mxGeometry x="204.5" y="180" as="geometry">
            <mxPoint x="340" y="999.29" as="sourcePoint" />
            <mxPoint x="455" y="999.29" as="targetPoint" />
          </mxGeometry>
        </mxCell>
        <mxCell id="QYz8Vl0O1Jo9Q_EbWl7z-97" value="(0,1,...,8,9)" style="edgeStyle=orthogonalEdgeStyle;rounded=0;html=1;jettySize=auto;orthogonalLoop=1;strokeWidth=4;endArrow=classic;endFill=1;labelPosition=center;verticalLabelPosition=top;align=center;verticalAlign=bottom;" edge="1" parent="1">
          <mxGeometry x="204.5" y="180" as="geometry">
            <mxPoint x="485" y="1000" as="sourcePoint" />
            <mxPoint x="600" y="1000" as="targetPoint" />
          </mxGeometry>
        </mxCell>
        <mxCell id="QYz8Vl0O1Jo9Q_EbWl7z-98" value="(0,1,...,8,9)" style="edgeStyle=orthogonalEdgeStyle;rounded=0;html=1;jettySize=auto;orthogonalLoop=1;strokeWidth=4;endArrow=classic;endFill=1;labelPosition=center;verticalLabelPosition=top;align=center;verticalAlign=bottom;" edge="1" parent="1">
          <mxGeometry x="204.5" y="180" as="geometry">
            <mxPoint x="645" y="999.29" as="sourcePoint" />
            <mxPoint x="760" y="999.29" as="targetPoint" />
          </mxGeometry>
        </mxCell>
        <mxCell id="QYz8Vl0O1Jo9Q_EbWl7z-99" value="(0,1,...,8,9)" style="edgeStyle=orthogonalEdgeStyle;rounded=0;html=1;jettySize=auto;orthogonalLoop=1;strokeWidth=4;endArrow=classic;endFill=1;labelPosition=center;verticalLabelPosition=top;align=center;verticalAlign=bottom;" edge="1" parent="1">
          <mxGeometry x="204.5" y="180" as="geometry">
            <mxPoint x="805" y="999.29" as="sourcePoint" />
            <mxPoint x="920" y="999.29" as="targetPoint" />
          </mxGeometry>
        </mxCell>
        <mxCell id="QYz8Vl0O1Jo9Q_EbWl7z-100" value="" style="verticalLabelPosition=bottom;verticalAlign=top;html=1;strokeWidth=4;shape=mxgraph.flowchart.on-page_reference;plain-blue;gradientColor=none;fillColor=#B5E3Fe;strokeColor=#000000;" vertex="1" parent="1">
          <mxGeometry x="155" y="980" width="30" height="30" as="geometry" />
        </mxCell>
        <mxCell id="QYz8Vl0O1Jo9Q_EbWl7z-101" value="" style="verticalLabelPosition=bottom;verticalAlign=top;html=1;strokeWidth=4;shape=mxgraph.flowchart.on-page_reference;plain-blue;gradientColor=none;fillColor=#B5E3Fe;strokeColor=#000000;" vertex="1" parent="1">
          <mxGeometry x="20" y="980" width="30" height="30" as="geometry" />
        </mxCell>
        <mxCell id="QYz8Vl0O1Jo9Q_EbWl7z-102" value="(0,1,...,8,9)" style="edgeStyle=orthogonalEdgeStyle;rounded=0;html=1;jettySize=auto;orthogonalLoop=1;strokeWidth=4;endArrow=classic;endFill=1;labelPosition=center;verticalLabelPosition=top;align=center;verticalAlign=bottom;" edge="1" parent="1">
          <mxGeometry x="204.5" y="180" as="geometry">
            <mxPoint x="50" y="994.29" as="sourcePoint" />
            <mxPoint x="165" y="994.5799999999999" as="targetPoint" />
          </mxGeometry>
        </mxCell>
        <mxCell id="QYz8Vl0O1Jo9Q_EbWl7z-103" value="" style="verticalLabelPosition=bottom;verticalAlign=top;html=1;strokeWidth=4;shape=mxgraph.flowchart.on-page_reference;plain-blue;gradientColor=none;fillColor=#B5E3Fe;strokeColor=#000000;" vertex="1" parent="1">
          <mxGeometry x="309.5" y="1075" width="30" height="30" as="geometry" />
        </mxCell>
        <mxCell id="QYz8Vl0O1Jo9Q_EbWl7z-104" value="" style="verticalLabelPosition=bottom;verticalAlign=top;html=1;strokeWidth=4;shape=mxgraph.flowchart.on-page_reference;plain-blue;gradientColor=none;strokeColor=#000000;" vertex="1" parent="1">
          <mxGeometry x="455" y="1075" width="30" height="30" as="geometry" />
        </mxCell>
        <mxCell id="QYz8Vl0O1Jo9Q_EbWl7z-105" value="" style="verticalLabelPosition=bottom;verticalAlign=top;html=1;strokeWidth=10;shape=mxgraph.flowchart.on-page_reference;plain-blue;gradientColor=default;strokeColor=#000000;fillStyle=solid;fillColor=none;" vertex="1" parent="1">
          <mxGeometry x="605" y="1075" width="30" height="30" as="geometry" />
        </mxCell>
        <mxCell id="QYz8Vl0O1Jo9Q_EbWl7z-108" value="(0,1,...,8,9)" style="edgeStyle=orthogonalEdgeStyle;rounded=0;html=1;jettySize=auto;orthogonalLoop=1;strokeWidth=4;endArrow=classic;endFill=1;labelPosition=center;verticalLabelPosition=top;align=center;verticalAlign=bottom;" edge="1" parent="1" target="QYz8Vl0O1Jo9Q_EbWl7z-103">
          <mxGeometry x="204.5" y="180" as="geometry">
            <mxPoint x="195" y="1090" as="sourcePoint" />
          </mxGeometry>
        </mxCell>
        <mxCell id="QYz8Vl0O1Jo9Q_EbWl7z-109" value="(0,1,...,8,9)" style="edgeStyle=orthogonalEdgeStyle;rounded=0;html=1;jettySize=auto;orthogonalLoop=1;strokeWidth=4;endArrow=classic;endFill=1;labelPosition=center;verticalLabelPosition=top;align=center;verticalAlign=bottom;" edge="1" parent="1">
          <mxGeometry x="204.5" y="180" as="geometry">
            <mxPoint x="340" y="1089.29" as="sourcePoint" />
            <mxPoint x="455" y="1089.29" as="targetPoint" />
          </mxGeometry>
        </mxCell>
        <mxCell id="QYz8Vl0O1Jo9Q_EbWl7z-110" value="(0,1,...,8,9)" style="edgeStyle=orthogonalEdgeStyle;rounded=0;html=1;jettySize=auto;orthogonalLoop=1;strokeWidth=4;endArrow=classic;endFill=1;labelPosition=center;verticalLabelPosition=top;align=center;verticalAlign=bottom;" edge="1" parent="1">
          <mxGeometry x="204.5" y="180" as="geometry">
            <mxPoint x="485" y="1090" as="sourcePoint" />
            <mxPoint x="600" y="1090" as="targetPoint" />
          </mxGeometry>
        </mxCell>
        <mxCell id="QYz8Vl0O1Jo9Q_EbWl7z-113" value="" style="verticalLabelPosition=bottom;verticalAlign=top;html=1;strokeWidth=4;shape=mxgraph.flowchart.on-page_reference;plain-blue;gradientColor=none;fillColor=#B5E3Fe;strokeColor=#000000;" vertex="1" parent="1">
          <mxGeometry x="155" y="1070" width="30" height="30" as="geometry" />
        </mxCell>
        <mxCell id="QYz8Vl0O1Jo9Q_EbWl7z-114" value="" style="verticalLabelPosition=bottom;verticalAlign=top;html=1;strokeWidth=4;shape=mxgraph.flowchart.on-page_reference;plain-blue;gradientColor=none;fillColor=#B5E3Fe;strokeColor=#000000;" vertex="1" parent="1">
          <mxGeometry x="20" y="1070" width="30" height="30" as="geometry" />
        </mxCell>
        <mxCell id="QYz8Vl0O1Jo9Q_EbWl7z-115" value="(0,1,...,8,9)" style="edgeStyle=orthogonalEdgeStyle;rounded=0;html=1;jettySize=auto;orthogonalLoop=1;strokeWidth=4;endArrow=classic;endFill=1;labelPosition=center;verticalLabelPosition=top;align=center;verticalAlign=bottom;" edge="1" parent="1">
          <mxGeometry x="204.5" y="180" as="geometry">
            <mxPoint x="50" y="1084.29" as="sourcePoint" />
            <mxPoint x="165" y="1084.58" as="targetPoint" />
          </mxGeometry>
        </mxCell>
        <mxCell id="QYz8Vl0O1Jo9Q_EbWl7z-116" value="" style="verticalLabelPosition=bottom;verticalAlign=top;html=1;strokeWidth=4;shape=mxgraph.flowchart.on-page_reference;plain-blue;gradientColor=none;fillColor=#B5E3Fe;strokeColor=#000000;" vertex="1" parent="1">
          <mxGeometry x="130" y="165" width="30" height="30" as="geometry" />
        </mxCell>
        <mxCell id="QYz8Vl0O1Jo9Q_EbWl7z-117" value="&lt;div&gt;&lt;br&gt;&lt;/div&gt;" style="edgeStyle=orthogonalEdgeStyle;rounded=0;html=1;jettySize=auto;orthogonalLoop=1;strokeWidth=4;endArrow=classic;endFill=1;labelPosition=center;verticalLabelPosition=top;align=center;verticalAlign=bottom;" edge="1" parent="1">
          <mxGeometry x="204.5" y="180" as="geometry">
            <mxPoint x="15" y="179.29" as="sourcePoint" />
            <mxPoint x="130" y="179.29" as="targetPoint" />
          </mxGeometry>
        </mxCell>
        <mxCell id="QYz8Vl0O1Jo9Q_EbWl7z-118" value="(0,1,...,8,9)" style="edgeStyle=entityRelationEdgeStyle;rounded=0;html=1;jettySize=auto;orthogonalLoop=1;strokeWidth=4;endArrow=classic;endFill=1;labelPosition=center;verticalLabelPosition=top;align=center;verticalAlign=bottom;" edge="1" parent="1">
          <mxGeometry x="204.5" y="180" as="geometry">
            <mxPoint x="940" y="880" as="sourcePoint" />
            <mxPoint x="10" y="999.29" as="targetPoint" />
          </mxGeometry>
        </mxCell>
        <mxCell id="QYz8Vl0O1Jo9Q_EbWl7z-119" value="(0,1,...,8,9)" style="edgeStyle=entityRelationEdgeStyle;rounded=0;html=1;jettySize=auto;orthogonalLoop=1;strokeWidth=4;endArrow=classic;endFill=1;labelPosition=center;verticalLabelPosition=top;align=center;verticalAlign=bottom;exitX=1;exitY=0.5;exitDx=0;exitDy=0;exitPerimeter=0;" edge="1" parent="1" source="QYz8Vl0O1Jo9Q_EbWl7z-94">
          <mxGeometry x="204.5" y="180" as="geometry">
            <mxPoint x="935" y="970" as="sourcePoint" />
            <mxPoint x="5" y="1089.29" as="targetPoint" />
          </mxGeometry>
        </mxCell>
      </root>
    </mxGraphModel>
  </diagram>
</mxfile>
